<?xml version="1.0" encoding="utf-8"?>
<!-- Generator: Adobe Illustrator 26.0.3, SVG Export Plug-In . SVG Version: 6.00 Build 0)  -->
<svg version="1.1" id="Layer_1" xmlns="http://www.w3.org/2000/svg" xmlns:xlink="http://www.w3.org/1999/xlink" x="0px" y="0px"
	 viewBox="0 0 336 138" style="enable-background:new 0 0 336 138;" xml:space="preserve">
<style type="text/css">
	.st0{fill:#FFB71B;}
</style>
<g>
	<polygon class="st0" points="96.8,13.9 82.1,13.9 60.1,67.4 74.8,67.4 	"/>
	<polygon points="100.1,15.6 92.7,33.6 106.6,67.4 122.2,67.4 	"/>
	<g>
		<path d="M148.7,29.3c-2.6,0-5,0.5-7.1,1.6s-3.8,2.6-5.1,4.6v-5.3h-11.2v37.2h11.5V46.6c0-2.5,0.7-4.6,2.2-6.1
			c1.4-1.5,3.3-2.3,5.7-2.3c2,0,3.4,0.6,4.4,1.7c0.9,1.2,1.4,3,1.4,5.5v21.9H162V45c0-5.3-1.1-9.2-3.3-11.8
			C156.5,30.6,153.2,29.3,148.7,29.3z"/>
	</g>
	<g>
		<path d="M189.4,45.6l-6.3-1.4c-1.5-0.4-2.6-0.8-3.2-1.3c-0.6-0.5-0.9-1.1-0.9-1.9c0-1.1,0.5-2,1.5-2.6s2.4-0.9,4.2-0.9
			c3.8,0,7.7,1.4,11.7,4.1l3-7.6c-2-1.5-4.3-2.6-6.8-3.4s-5.1-1.2-7.8-1.2c-3.1,0-5.9,0.5-8.4,1.5s-4.3,2.4-5.7,4.2
			c-1.3,1.8-2,3.8-2,6.1c0,2.9,0.8,5.2,2.5,6.9s4.3,2.9,7.9,3.8l6.1,1.4c1.9,0.4,3.1,0.9,3.8,1.4s1,1.2,1,2.1c0,1-0.5,1.8-1.5,2.4
			c-1,0.6-2.4,0.9-4.1,0.9c-2.5,0-4.9-0.4-7.4-1.1c-2.4-0.8-4.7-1.8-6.7-3.2l-3,7.9c2.1,1.5,4.5,2.6,7.4,3.4c2.9,0.8,6,1.2,9.4,1.2
			c5,0,8.9-1,11.8-3.1c2.9-2,4.3-4.9,4.3-8.5c0-3-0.9-5.3-2.6-7.1C195.9,47.7,193.2,46.4,189.4,45.6z"/>
	</g>
	<g>
		<path d="M274,49.5c-1.7-1.7-4.5-3-8.3-3.9l-6.3-1.4c-1.5-0.4-2.6-0.8-3.2-1.3s-0.9-1.1-0.9-1.9c0-1.1,0.5-2,1.5-2.6
			s2.4-0.9,4.2-0.9c3.8,0,7.7,1.4,11.7,4.1l3-7.6c-2-1.5-4.3-2.6-6.8-3.4s-5.1-1.2-7.8-1.2c-3.1,0-5.9,0.5-8.4,1.5s-4.4,2.4-5.7,4.2
			s-2,3.8-2,6.1c0,2.9,0.8,5.2,2.5,6.9s4.3,2.9,7.9,3.8l6.1,1.4c1.9,0.4,3.1,0.9,3.8,1.4c0.7,0.5,1,1.2,1,2.1c0,1-0.5,1.8-1.5,2.4
			c-1,0.6-2.4,0.9-4.1,0.9c-2.5,0-4.9-0.4-7.4-1.1c-2.4-0.8-4.7-1.8-6.7-3.2l-3,7.9c2.1,1.5,4.5,2.6,7.4,3.4c2.9,0.8,6,1.2,9.4,1.2
			c5,0,8.9-1,11.8-3.1c2.9-2,4.3-4.9,4.3-8.5C276.6,53.6,275.7,51.2,274,49.5z"/>
	</g>
	<polygon points="231.9,30.3 222.9,52.1 214,30.3 202.9,30.3 217.4,65.6 211,81.1 222.1,81.1 242.9,30.3 	"/>
</g>
<g>
	<path d="M21.8,119.3h1.7v3.9c-1,0.8-2.5,1.2-3.8,1.2c-3,0-5.3-2.1-5.3-5s2.2-5,5.3-5c1.6,0,3,0.5,3.9,1.6l-1.1,1.1
		c-0.8-0.8-1.7-1.1-2.7-1.1c-2.1,0-3.6,1.4-3.6,3.4s1.5,3.4,3.5,3.4c0.7,0,1.4-0.1,2-0.5v-3H21.8z"/>
	<path d="M28,119.4c0-2.9,2.2-5,5.3-5c3,0,5.3,2.1,5.3,5s-2.2,5-5.3,5C30.2,124.5,28,122.3,28,119.4z M36.7,119.4
		c0-2-1.5-3.4-3.4-3.4s-3.4,1.4-3.4,3.4s1.5,3.4,3.4,3.4C35.2,122.8,36.7,121.4,36.7,119.4z"/>
	<path d="M51.9,114.5l-4.3,9.8h-1.8l-4.3-9.8h2l3.3,7.6l3.3-7.6H51.9z"/>
	<path d="M63.1,122.8v1.5h-7.4v-9.8h7.2v1.5h-5.3v2.5h4.7v1.5h-4.7v2.7h5.5V122.8z"/>
	<path d="M74.4,124.3l-2-2.9c-0.1,0-0.3,0-0.4,0h-2.2v2.9H68v-9.8h4c2.6,0,4.2,1.3,4.2,3.5c0,1.5-0.8,2.6-2.1,3.1l2.3,3.2
		C76.4,124.3,74.4,124.3,74.4,124.3z M71.9,116.1h-2.1v3.9h2.1c1.6,0,2.4-0.7,2.4-2C74.3,116.8,73.5,116.1,71.9,116.1z"/>
	<path d="M89.7,114.5v9.8h-1.5l-5.4-6.6v6.6H81v-9.8h1.5l5.4,6.6v-6.6H89.7z"/>
	<path d="M104.1,124.3v-6.5l-3.2,5.4h-0.8l-3.2-5.3v6.4h-1.7v-9.8h1.5l3.9,6.5l3.8-6.5h1.5v9.8H104.1z"/>
	<path d="M118.7,122.8v1.5h-7.4v-9.8h7.2v1.5h-5.3v2.5h4.7v1.5h-4.7v2.7h5.5V122.8z"/>
	<path d="M132.2,114.5v9.8h-1.5l-5.4-6.6v6.6h-1.8v-9.8h1.5l5.4,6.6v-6.6H132.2z"/>
	<path d="M139.6,116.1h-3.2v-1.5h8.3v1.5h-3.2v8.3h-1.8v-8.3H139.6z"/>
	<path d="M155.5,114.5h1.8v9.8h-1.8V114.5z"/>
	<path d="M171.5,114.5v9.8H170l-5.4-6.6v6.6h-1.8v-9.8h1.5l5.4,6.6v-6.6H171.5z"/>
	<path d="M176.9,114.5h1.8v9.8h-1.8V114.5z"/>
	<path d="M186.2,116.1H183v-1.5h8.3v1.5H188v8.3h-1.8V116.1z"/>
	<path d="M195.4,114.5h1.8v9.8h-1.8V114.5z"/>
	<path d="M209,122.1h-4.9l-1,2.3h-1.9l4.4-9.8h1.8l4.4,9.8H210L209,122.1z M208.4,120.6l-1.8-4.3l-1.8,4.3H208.4z"/>
	<path d="M217.5,116.1h-3.2v-1.5h8.3v1.5h-3.2v8.3h-1.8v-8.3H217.5z"/>
	<path d="M226.7,114.5h1.8v9.8h-1.8V114.5z"/>
	<path d="M242.9,114.5l-4.3,9.8h-1.8l-4.3-9.8h2l3.3,7.6l3.3-7.6H242.9z"/>
	<path d="M254,122.8v1.5h-7.4v-9.8h7.2v1.5h-5.3v2.5h4.7v1.5h-4.7v2.7h5.5V122.8z"/>
	<path d="M258,123.3l0.6-1.4c0.8,0.6,2,1.1,3.2,1.1c1.5,0,2.2-0.5,2.2-1.3c0-2.1-5.8-0.7-5.8-4.4c0-1.6,1.3-2.9,4-2.9
		c1.2,0,2.4,0.3,3.3,0.9l-0.6,1.4c-0.9-0.5-1.8-0.8-2.7-0.8c-1.5,0-2.1,0.6-2.1,1.3c0,2.1,5.8,0.7,5.8,4.3c0,1.6-1.3,2.9-4,2.9
		C260.4,124.5,258.9,124,258,123.3z"/>
	<path d="M277.1,119.5c0-2.6,0.6-4.9,1.7-6.6h1.7c-1.2,2-1.7,4.2-1.7,6.6s0.5,4.5,1.7,6.6h-1.7C277.8,124.4,277.1,122.1,277.1,119.5
		z"/>
	<path d="M291.4,122.1h-4.9l-1,2.3h-1.9l4.4-9.8h1.8l4.4,9.8h-1.9L291.4,122.1z M290.8,120.6l-1.8-4.3l-1.8,4.3H290.8z"/>
	<path d="M304.9,119.3h1.7v3.9c-1,0.8-2.5,1.2-3.8,1.2c-3,0-5.3-2.1-5.3-5s2.2-5,5.3-5c1.6,0,3,0.5,3.9,1.6l-1.1,1.1
		c-0.8-0.8-1.7-1.1-2.7-1.1c-2.1,0-3.6,1.4-3.6,3.4s1.5,3.4,3.5,3.4c0.7,0,1.4-0.1,2-0.5v-3H304.9z"/>
	<path d="M311.8,114.5h1.8v9.8h-1.8V114.5z"/>
	<path d="M318.2,126.1c1.2-2,1.7-4.2,1.7-6.6s-0.5-4.5-1.7-6.6h1.7c1.1,1.7,1.7,4,1.7,6.6s-0.6,4.9-1.7,6.6H318.2z"/>
</g>
<rect x="60.1" y="95.8" class="st0" width="216.5" height="1.6"/>
</svg>
