<?xml version="1.0" encoding="utf-8"?>
<!-- Generator: Adobe Illustrator 27.7.0, SVG Export Plug-In . SVG Version: 6.00 Build 0)  -->
<svg version="1.1" id="Brand_Stuff" xmlns="http://www.w3.org/2000/svg" xmlns:xlink="http://www.w3.org/1999/xlink" x="0px"
	 y="0px" viewBox="0 0 800 269.1" style="enable-background:new 0 0 800 269.1;" xml:space="preserve">
<style type="text/css">
	.st0{fill:#FCB51A;}
</style>
<g>
	<g>
		<path d="M334.4,194.6l11.6-25.8c12.5,9.1,31.1,15.4,48.8,15.4c20.3,0,28.5-6.8,28.5-15.9c0-27.7-86-8.7-86-63.6
			c0-25.2,20.3-46.1,62.4-46.1c18.6,0,37.6,4.4,51.4,13.1l-10.6,26c-13.7-7.8-27.9-11.6-41-11.6c-20.3,0-28.1,7.6-28.1,16.9
			c0,27.3,86,8.5,86,62.8c0,24.7-20.5,45.9-62.8,45.9C371.1,211.8,347.5,204.8,334.4,194.6z"/>
		<path d="M509.4,89.1H462V61.2h129v27.9h-47.4v120.1h-34.2V89.1z"/>
		<path d="M659.1,151.1l-19.9,20.7v37.4h-34v-148h34v69.1l65.5-69.1h38.1l-61.3,66l64.9,82h-40L659.1,151.1z"/>
	</g>
	<g>
		<path class="st0" d="M217.1,53.7c9.1,0,16.5-7.3,16.5-16.3c0-9.1-7.3-16.5-16.3-16.5c-9.1,0-16.5,7.3-16.5,16.3
			C200.7,46.2,208,53.7,217.1,53.7z M217.3,23c7.9,0,14.2,6.5,14.2,14.3c0,7.9-6.5,14.2-14.3,14.2c-7.9,0-14.2-6.5-14.2-14.3
			C203,29.3,209.4,23,217.3,23z"/>
		<path class="st0" d="M217.1,47.5c5.6,0,10.3-4.5,10.3-10.2c0-5.6-4.5-10.3-10.2-10.3c-5.6,0-10.3,4.5-10.3,10.2
			C206.9,42.9,211.5,47.5,217.1,47.5z M217.2,29.2c4.5,0,8.1,3.7,8,8.1c0,4.5-3.7,8.1-8.1,8c-4.5,0-8.1-3.7-8-8.1
			C209.1,32.8,212.8,29.2,217.2,29.2z"/>
		<path class="st0" d="M268,132.2c-1.8,0-3.3,1.5-3.3,3.3c0,64.6-52.6,117.2-117.2,117.2c-64.6,0-117.2-52.6-117.2-117.2
			c0-64.6,52.6-117.2,117.2-117.2c1.8,0,3.3-1.5,3.3-3.3c0-1.8-1.5-3.3-3.3-3.3c-68.3,0-123.9,55.6-123.9,123.9
			c0,68.3,55.6,123.9,123.9,123.9c68.3,0,123.9-55.6,123.9-123.9C271.3,133.7,269.8,132.2,268,132.2z"/>
		<path class="st0" d="M97.6,60.6c-0.6,0.4-0.9,1-1,1.8c0,0.6,0.2,1.2,0.6,1.6c0.1,0.1,0.2,0.2,0.3,0.2c10.6,7.7,21.7,14.7,33.1,21
			c-7.1,10.4-13.6,22.4-19,35.5c-5.4,13.1-9.3,26.2-11.6,38.6c-6.6-1.9-13.2-3.6-19.8-5.1c-0.2-13.4,2.3-27.5,7.6-41l11.5,4.8
			c0.8,0.3,1.6,0.2,2.3-0.4c0.6-0.5,0.9-1.4,0.7-2.2L91.2,75.1c-0.2-0.6-0.6-1.2-1.3-1.4c-0.6-0.3-1.3-0.2-1.9,0.1L51.8,94.4
			c-0.7,0.4-1.1,1.2-1.1,2c0.1,0.8,0.6,1.5,1.3,1.9l11.5,4.8c-8.4,21.7-8.1,45.3,0.8,66.8c4.6,11.1,11.2,21,19.5,29.2
			c8.2,8.2,18.1,14.8,29.1,19.4c0,0,0.1,0,0.1,0c27.7,11.5,59.2,8.4,84.2-8.2c0.6-0.4,0.9-1,1-1.8c0-0.7-0.3-1.4-0.9-1.8
			c-10.6-7.7-21.7-14.7-33.1-21c7.1-10.4,13.6-22.4,19-35.5c5.4-13.1,9.3-26.2,11.6-38.6c6.6,1.9,13.2,3.6,19.8,5.1
			c0.2,13.4-2.3,27.5-7.6,41l-11.5-4.8c-0.8-0.3-1.6-0.2-2.3,0.4c-0.6,0.5-0.9,1.4-0.7,2.2l11.1,40.2c0.1,0.4,0.3,0.7,0.6,1
			c0.2,0.2,0.4,0.4,0.7,0.5c0.6,0.3,1.3,0.2,1.9-0.1l36.3-20.6c0.7-0.4,1.1-1.2,1.1-2c-0.1-0.8-0.6-1.5-1.3-1.9l-11.5-4.8
			c8.4-21.7,8.1-45.3-0.8-66.8c-9.2-22.2-26.5-39.5-48.7-48.7C154.2,40.9,122.7,44,97.6,60.6z M134.5,87.3
			c8.3,4.5,16.9,8.5,25.5,12.2l-13.8,33.2l-29.8-12.3C121.7,108.2,127.9,96.9,134.5,87.3z M114.9,124.3l29.8,12.3l-13.8,33.2
			c-8.7-3.5-17.6-6.7-26.7-9.4C106.3,148.9,110,136.6,114.9,124.3z M68.4,168.3c-8.8-21.1-8.8-44.4,0-65.5c0.2-0.5,0.2-1.1,0-1.7
			c-0.2-0.5-0.6-0.9-1.2-1.2L57.8,96l30-17.1l9.1,33.3l-9.4-3.9c-0.5-0.2-1.1-0.2-1.7,0c-0.5,0.2-1,0.6-1.2,1.2
			c-6.3,15.1-9.2,30.9-8.7,45.9c0,0,0,0,0,0c-0.1,0.3,0,0.7,0,1c0.3,6.6,1.1,13,2.7,19.2c2,7.9,5.1,15,9,21.2
			C79.4,188.7,72.9,179.1,68.4,168.3z M82.8,174.5c-1.3-5.1-2.1-10.4-2.5-15.8c6.4,1.4,12.7,3.1,19,4.9c-1.1,6.8-1.7,13.3-1.6,19.4
			c0,9.6,1.5,17.5,4.2,23.6C92.9,198.9,86.3,188,82.8,174.5z M112.8,213.5c-6.8-4.3-10.8-15.2-10.8-30.6c0-5.7,0.5-11.8,1.5-18.2
			c8.7,2.7,17.3,5.7,25.7,9.1L112.8,213.5z M116.8,215.2l16.4-39.6c8.4,3.5,16.6,7.5,24.6,11.8c-3.8,5.2-7.7,9.9-11.8,13.9
			C135.2,212.1,124.7,217,116.8,215.2z M192.3,208.5c-19.5,12-42.8,15.5-64.8,10.2c6.8-2.1,14.1-6.9,21.7-14.4
			c4.3-4.3,8.5-9.4,12.6-14.9C172.2,195.1,182.4,201.5,192.3,208.5z M160.4,183.7c-8.3-4.5-16.9-8.5-25.5-12.2l13.8-33.2l29.8,12.3
			C173.2,162.8,167.1,174.1,160.4,183.7z M180.1,146.7l-29.8-12.3l13.8-33.2c8.7,3.5,17.6,6.7,26.7,9.4
			C188.6,122.1,185,134.4,180.1,146.7z M226.6,102.7c8.8,21.1,8.8,44.4,0,65.5c-0.2,0.5-0.2,1.1,0,1.7c0.2,0.5,0.6,0.9,1.2,1.2
			l9.4,3.9l-30,17.1l-9.1-33.3l9.4,3.9c0.5,0.2,1.1,0.2,1.7,0c0.5-0.2,1-0.6,1.2-1.2c6.3-15.1,9.2-30.9,8.7-45.9c0,0,0,0,0,0
			c0.1-0.3,0-0.7,0-1c-0.3-6.6-1.1-13-2.7-19.2c-2-7.9-5.1-15-9-21.2C215.6,82.2,222.1,91.9,226.6,102.7z M212.1,96.5
			c1.3,5.1,2.1,10.4,2.4,15.8c-6.4-1.4-12.7-3.1-19-4.9c1.1-6.8,1.7-13.3,1.6-19.4c0-9.6-1.5-17.5-4.1-23.6
			C202.1,72.1,208.7,83,212.1,96.5z M182.2,57.4c0.9,0.6,1.8,1.2,2.6,2c5.2,5.2,8.2,15.3,8.2,28.6c0,5.7-0.5,11.8-1.5,18.2
			c-8.7-2.7-17.3-5.7-25.7-9.1L182.2,57.4z M178.1,55.8l-16.4,39.6c-8.4-3.5-16.6-7.5-24.6-11.8c3.8-5.2,7.7-9.9,11.8-13.9
			C159.8,58.9,170.3,54,178.1,55.8z M145.8,66.7c-4.3,4.3-8.5,9.4-12.6,14.9c-10.5-5.8-20.7-12.2-30.5-19.1
			c19.5-12,42.8-15.5,64.8-10.2C160.7,54.4,153.4,59.2,145.8,66.7z"/>
		<path class="st0" d="M159.1,19.1c1.8,0,3.2-1.5,3.2-3.3c0-1.8-1.5-3.2-3.3-3.2c-1.8,0-3.2,1.5-3.2,3.3S157.3,19.1,159.1,19.1z"/>
		<path class="st0" d="M172,21.1c1.8,0.2,3.4-1.2,3.6-3c0.2-1.8-1.2-3.4-3-3.6c-1.8-0.2-3.4,1.2-3.6,3
			C168.9,19.3,170.2,20.9,172,21.1z"/>
		<path class="st0" d="M184.6,24.5c1.8,0.4,3.5-0.8,3.9-2.5c0.4-1.8-0.8-3.5-2.5-3.9c-1.8-0.4-3.5,0.8-3.9,2.5
			C181.7,22.4,182.8,24.1,184.6,24.5z"/>
		<path class="st0" d="M196.8,29.3c1.7,0.6,3.6-0.4,4.1-2.1c0.6-1.7-0.4-3.6-2.1-4.1c-1.7-0.6-3.6,0.4-4.1,2.1
			C194.1,26.8,195,28.7,196.8,29.3z"/>
		<path class="st0" d="M231.2,49.3c-1.1,1.4-0.9,3.5,0.5,4.6c1.4,1.1,3.5,0.9,4.6-0.5c1.1-1.4,0.9-3.5-0.5-4.6
			C234.4,47.7,232.3,47.9,231.2,49.3z"/>
		<path class="st0" d="M244.9,63.7c1.3-1.3,1.3-3.3,0-4.6c-1.3-1.3-3.3-1.3-4.6,0c-1.3,1.3-1.3,3.3,0,4.6
			C241.5,65,243.6,65,244.9,63.7z"/>
		<path class="st0" d="M252.3,75c1.4-1.1,1.7-3.2,0.6-4.6c-1.1-1.4-3.2-1.7-4.6-0.6c-1.4,1.1-1.7,3.2-0.6,4.6
			C248.8,75.8,250.8,76.1,252.3,75z"/>
		<path class="st0" d="M253.9,85.9c1,1.5,3,2,4.5,1.1c1.5-1,2-3,1.1-4.5c-1-1.5-3-2-4.5-1.1C253.4,82.3,252.9,84.4,253.9,85.9z"/>
		<path class="st0" d="M258.7,98c0.8,1.6,2.7,2.3,4.4,1.6c1.6-0.8,2.3-2.7,1.6-4.4c-0.8-1.6-2.7-2.3-4.4-1.6
			C258.7,94.4,258,96.4,258.7,98z"/>
		<path class="st0" d="M262.3,110.6c0.6,1.7,2.4,2.6,4.2,2c1.7-0.6,2.6-2.4,2-4.2c-0.6-1.7-2.4-2.6-4.2-2
			C262.6,107,261.7,108.9,262.3,110.6z"/>
		<path class="st0" d="M266.8,119.5c-1.8,0.4-2.9,2.1-2.5,3.9c0.4,1.8,2.1,2.9,3.9,2.5s2.9-2.1,2.5-3.9
			C270.3,120.3,268.6,119.1,266.8,119.5z"/>
	</g>
</g>
</svg>
